<?xml version="1.0" encoding="iso-8859-1"?>
<!-- Uploaded to: SVG Repo, www.svgrepo.com, Generator: SVG Repo Mixer Tools -->
<!DOCTYPE svg PUBLIC "-//W3C//DTD SVG 1.1//EN" "http://www.w3.org/Graphics/SVG/1.1/DTD/svg11.dtd">
<svg fill="#000000" version="1.1" id="Capa_1" xmlns="http://www.w3.org/2000/svg" xmlns:xlink="http://www.w3.org/1999/xlink" 
	 width="800px" height="800px" viewBox="0 0 151.375 151.376"
	 xml:space="preserve">
<g>
	<path d="M116.406,66.773l6.64-12.222c0.939-1.726,3.106-2.363,4.813-1.422c1.724,0.93,2.369,3.086,1.429,4.818l-6.633,12.222
		c-0.646,1.182-1.86,1.861-3.124,1.861c-0.585,0-1.164-0.143-1.713-0.439C116.111,70.667,115.467,68.514,116.406,66.773z
		 M96.982,60.542c0.294,0.079,0.579,0.112,0.863,0.112c1.593,0,3.037-1.07,3.452-2.685l3.394-13.505
		c0.472-1.91-0.673-3.836-2.581-4.317c-1.989-0.454-3.844,0.687-4.325,2.583l-3.398,13.503
		C93.923,58.128,95.073,60.06,96.982,60.542z M45.228,52.766c0.409,1.611,1.849,2.685,3.446,2.685c0.285,0,0.583-0.037,0.868-0.107
		c1.91-0.487,3.053-2.438,2.582-4.32l-3.417-13.504c-0.486-1.893-2.342-3.116-4.32-2.594c-1.91,0.493-3.054,2.438-2.582,4.32
		L45.228,52.766z M72.671,53.633c1.973,0,3.565-1.598,3.565-3.57V36.18c0-1.967-1.597-3.565-3.565-3.565
		c-1.962,0-3.557,1.598-3.557,3.565v13.882C69.115,52.035,70.709,53.633,72.671,53.633z M150.277,97.896
		c1.413,1.379,1.475,3.623,0.116,5.029c-0.71,0.738-1.631,1.095-2.567,1.095c-0.884,0-1.771-0.334-2.467-0.991
		c-0.126-0.137-5.139-4.782-12.826-10.676c-16.165,11.781-41.177,26.408-66.107,26.408c-24.285,0-42.233-13.735-53.294-25.468
		c-4.047,5.019-6.434,8.838-6.513,8.969c-0.99,1.675-3.166,2.25-4.84,1.282c-1.705-0.975-2.288-3.152-1.293-4.85
		c0.311-0.536,3.126-5.077,7.821-10.834c-4.708-5.734-7.52-10.288-7.821-10.841c-0.994-1.695-0.399-3.857,1.293-4.83
		c1.674-1.013,3.855-0.42,4.84,1.28c0.079,0.119,2.465,3.938,6.513,8.962c11.062-11.743,29.01-25.464,53.294-25.464
		c24.93,0,49.942,14.631,66.107,26.405c7.688-5.91,12.7-10.538,12.826-10.682c1.449-1.34,3.666-1.296,5.034,0.115
		c1.358,1.429,1.297,3.661-0.116,5.029c-0.533,0.504-5.053,4.684-11.852,10.035C145.224,93.212,149.752,97.392,150.277,97.896z
		 M126.371,87.871C110.934,76.916,88.353,64.09,66.426,64.09c-21.848,0-38.383,12.958-48.494,23.781
		c10.12,10.837,26.646,23.781,48.494,23.781C88.353,111.652,110.934,98.825,126.371,87.871z M18.963,68.145
		c0.64,1.185,1.856,1.85,3.128,1.85c0.582,0,1.16-0.128,1.709-0.424c1.718-0.936,2.358-3.1,1.424-4.826l-6.642-12.219
		c-0.936-1.727-3.11-2.405-4.818-1.431c-1.726,0.941-2.361,3.094-1.425,4.826L18.963,68.145z M50.074,87.997
		c0,9.921,8.059,17.938,17.982,17.938c9.924,0,17.953-8.025,17.953-17.938c0-9.954-8.041-17.981-17.953-17.981
		C58.128,70.016,50.074,78.043,50.074,87.997z"/>
</g>
</svg>